<?xml version="1.0" encoding="UTF-8" standalone="no"?>
<!-- Created with Inkscape (http://www.inkscape.org/) -->

<svg
   xmlns:dc="http://purl.org/dc/elements/1.1/"
   xmlns:cc="http://creativecommons.org/ns#"
   xmlns:rdf="http://www.w3.org/1999/02/22-rdf-syntax-ns#"
   xmlns:svg="http://www.w3.org/2000/svg"
   xmlns="http://www.w3.org/2000/svg"
   xmlns:sodipodi="http://sodipodi.sourceforge.net/DTD/sodipodi-0.dtd"
   xmlns:inkscape="http://www.inkscape.org/namespaces/inkscape"
   id="svg7384"
   height="48"
   width="48"
   version="1.1"
   inkscape:version="0.92.3 (2405546, 2018-03-11)"
   sodipodi:docname="anoise-indicator-symbolic.svg">
  <defs
     id="defs12" />
  <sodipodi:namedview
     pagecolor="#ffffff"
     bordercolor="#666666"
     borderopacity="1"
     objecttolerance="10"
     gridtolerance="10"
     guidetolerance="10"
     inkscape:pageopacity="0"
     inkscape:pageshadow="2"
     inkscape:window-width="1228"
     inkscape:window-height="812"
     id="namedview10"
     showgrid="false"
     inkscape:zoom="7.38"
     inkscape:cx="-4.8652791"
     inkscape:cy="18.847458"
     inkscape:window-x="375"
     inkscape:window-y="125"
     inkscape:window-maximized="0"
     inkscape:current-layer="svg7384" />
  <metadata
     id="metadata90">
    <rdf:RDF>
      <cc:Work
         rdf:about="">
        <dc:format>image/svg+xml</dc:format>
        <dc:type
           rdf:resource="http://purl.org/dc/dcmitype/StillImage" />
        <dc:title>Gnome Symbolic Icon Theme</dc:title>
      </cc:Work>
    </rdf:RDF>
  </metadata>
  <title
     id="title9167">Gnome Symbolic Icon Theme</title>
  <path
     style="fill:#bebebe;fill-opacity:1;fill-rule:evenodd;stroke:none;stroke-width:0.13345;stroke-linecap:butt;stroke-linejoin:miter;stroke-miterlimit:4;stroke-dasharray:none;stroke-opacity:1"
     d="M 23.999999,4.0449002 A 20.021882,19.955141 0 0 0 3.9785156,24 20.021882,19.955141 0 0 0 23.999999,43.9551 20.021882,19.955141 0 0 0 44.021484,24 20.021882,19.955141 0 0 0 23.999999,4.0449002 Z m 0,4.9007996 A 15.105128,15.054778 0 0 1 39.10576,24 15.105128,15.054778 0 0 1 23.999999,39.0543 15.105128,15.054778 0 0 1 8.8942382,24 15.105128,15.054778 0 0 1 23.999999,8.9456998 Z"
     id="path3356"
     inkscape:connector-curvature="0" />
  <path
     id="path4175"
     d="M 17.69725,31.7945 25.49175,24 17.69725,16.2055 20.10275,13.8 30.302749,24 20.10275,34.2 Z"
     inkscape:connector-curvature="0"
     style="fill:#bebebe;fill-opacity:1;stroke:none;stroke-width:0.13345;stroke-miterlimit:4;stroke-dasharray:none;stroke-opacity:1" />
</svg>
